<svg enable-background="new 0 0 2500 1250" viewBox="300 200 700 950" xmlns="http://www.w3.org/2000/svg"><g clip-rule="evenodd" fill-rule="evenodd"><path d="m0 0h2500v1250h-2500z"/><path d="m673.8 479.4-.6-168.1h-93.8l.6 168.1 46.9 64.4zm-93.8 288.1v168.7h93.8v-168.7l-46.9-64.4z" fill="#fff"/><path d="m673.8 767.5 98.8 136.3 75.6-55-98.8-136.3-75.6-24.4zm-93.8-288.1-99.4-136.3-75.6 55 98.8 136.2 76.2 24.4z" fill="#00f2e6"/><path d="m503.8 534.4-160-51.9-28.8 88.7 160 52.5 75.6-25zm198.7 113.7 46.9 64.4 160 51.9 28.8-88.7-160-51.9z" fill="#00b9f1"/><path d="m778.1 623.8 160-52.5-28.8-88.7-160 51.9-46.9 64.4zm-303.1 0-160 51.9 28.8 88.7 160-51.9 46.9-64.4z" fill="#d63aff"/><path d="m503.8 712.5-98.8 136.3 75.6 55 99.4-136.3v-79.4zm245.6-178.1 98.8-136.3-75.6-55-98.8 136.2v79.4z" fill="#fb015b"/></g></svg>